<?xml version="1.0" encoding="UTF-8"?>
<!DOCTYPE svg PUBLIC "-//W3C//DTD SVG 1.1//EN" "http://www.w3.org/Graphics/SVG/1.1/DTD/svg11.dtd">
<!-- Creator: CorelDRAW X8 -->
<svg xmlns="http://www.w3.org/2000/svg" xml:space="preserve" width="7.03846in" height="11.6929in" version="1.1" style="shape-rendering:geometricPrecision; text-rendering:geometricPrecision; image-rendering:optimizeQuality; fill-rule:evenodd; clip-rule:evenodd"
viewBox="0 0 7038 11693"
 xmlns:xlink="http://www.w3.org/1999/xlink">
 <defs>
  <style type="text/css">
   <![CDATA[
    .str0 {stroke:black;stroke-width:97.2205}
    .fil2 {fill:none}
    .fil3 {fill:black;fill-rule:nonzero}
    .fil0 {fill:url(#id0)}
    .fil1 {fill:url(#id1)}
   ]]>
  </style>
  <linearGradient id="id0" gradientUnits="userSpaceOnUse" x1="6949.22" y1="10989.7" x2="167.102" y2="346.972">
   <stop offset="0" style="stop-opacity:1; stop-color:#474548"/>
   <stop offset="0.639216" style="stop-opacity:1; stop-color:#A09EA1"/>
   <stop offset="1" style="stop-opacity:1; stop-color:#F9F7FB"/>
  </linearGradient>
  <linearGradient id="id1" gradientUnits="userSpaceOnUse" x1="812.039" y1="1156.94" x2="6308.5" y2="10335.2">
   <stop offset="0" style="stop-opacity:1; stop-color:#BDBDBF"/>
   <stop offset="0.0666667" style="stop-opacity:1; stop-color:#B5B5B7"/>
   <stop offset="0.2" style="stop-opacity:0.858824; stop-color:#FDFBFE"/>
   <stop offset="0.74902" style="stop-opacity:1; stop-color:#8E908F"/>
   <stop offset="1" style="stop-opacity:1; stop-color:#ADADAE"/>
  </linearGradient>
 </defs>
 <g id="Layer_x0020_1">
  <metadata id="CorelCorpID_0Corel-Layer"/>
  <rect class="fil0" x="236" y="304" width="6645" height="10728" rx="581" ry="573"/>
  <rect class="fil1" x="387" y="457" width="6337" height="10427" rx="554" ry="557"/>
  <rect class="fil2 str0" x="592" y="713" width="5928" height="9915" rx="260" ry="254"/>
  <path class="fil3" d="M1269 1291l0 789 87 0c53,0 94,-3 123,-8 29,-6 54,-15 76,-29 47,-27 84,-71 107,-132 24,-60 36,-136 36,-227 0,-140 -27,-241 -81,-302 -55,-60 -147,-91 -276,-91l-72 0zm-260 -49c18,1 37,2 58,2 21,1 52,1 93,1 23,0 60,0 112,-1 52,-2 92,-2 121,-2 150,0 267,39 352,118 85,79 128,189 128,328 0,141 -40,251 -121,327 -80,76 -195,115 -344,115 -25,0 -64,-1 -116,-3 -52,-1 -92,-2 -119,-2 -29,0 -56,1 -83,1 -27,1 -54,2 -81,4l0 -48c45,0 73,-6 85,-18 12,-12 18,-41 18,-86l0 -583c0,-46 -6,-74 -18,-86 -12,-11 -40,-17 -85,-18l0 -49z"/>
  <path id="1" class="fil3" d="M2677 1238c1,29 3,62 5,98 2,36 5,82 9,138l-41 0c-8,-72 -26,-121 -55,-145 -28,-25 -83,-38 -163,-38l-188 0 0 344 87 0c55,0 90,-8 104,-24 14,-16 23,-54 27,-113l41 0c-1,12 -2,30 -2,52 -2,58 -3,96 -3,115 0,32 1,85 4,159 0,12 1,20 1,25l-41 0c-4,-68 -13,-113 -29,-133 -16,-20 -50,-30 -102,-30l-87 0 0 394 234 0c82,0 139,-14 169,-43 30,-28 48,-83 56,-166l41 0c-5,49 -8,95 -11,137 -3,43 -5,83 -7,122l-742 0 0 -48c45,0 73,-6 85,-18 12,-12 18,-41 18,-86l0 -583c0,-46 -6,-74 -18,-86 -12,-11 -40,-17 -85,-18l0 -49 159 0c111,0 212,-1 301,-1 89,-1 167,-2 233,-3z"/>
  <path id="2" class="fil3" d="M2854 1242c41,2 77,4 107,5 30,2 54,2 72,2 35,0 93,-2 174,-6 12,-1 21,-1 27,-1l0 49 -12 0c-47,0 -77,6 -89,17 -13,12 -19,41 -19,87l0 682 194 0c81,0 136,-16 167,-48 30,-31 50,-94 58,-188l45 0 -24 293c-78,-3 -149,-4 -214,-5 -65,-1 -114,-2 -147,-2 -69,0 -177,1 -324,3l-15 0 0 -49c45,0 73,-5 85,-17 12,-12 18,-41 18,-86l0 -583c0,-46 -6,-74 -18,-86 -12,-11 -40,-17 -85,-18l0 -49z"/>
  <path id="3" class="fil3" d="M3620 1242c13,0 31,1 54,2 62,4 103,5 123,5 26,0 74,-2 145,-5 18,-1 31,-2 41,-2l0 49c-44,0 -73,6 -85,18 -12,12 -18,41 -18,86l0 397c0,55 2,93 5,115 2,21 7,39 14,53 16,36 43,63 81,81 38,18 87,27 147,27 42,0 78,-6 109,-18 31,-11 56,-28 75,-51 15,-19 25,-42 31,-70 6,-28 9,-79 9,-152l0 -354c0,-62 -6,-100 -18,-112 -12,-13 -40,-20 -84,-20l0 -49c28,2 53,3 76,4 22,1 43,2 60,2 12,0 27,-1 46,-2 18,-1 42,-2 71,-4l0 49c-39,0 -64,6 -76,19 -11,12 -16,50 -16,113l0 368c0,70 -5,121 -13,155 -8,34 -21,63 -39,89 -27,35 -64,62 -112,79 -49,18 -109,27 -179,27 -69,0 -128,-9 -177,-27 -49,-19 -88,-46 -117,-83 -19,-23 -31,-50 -39,-82 -7,-31 -11,-86 -11,-164l0 -390c0,-46 -6,-75 -18,-87 -12,-11 -40,-17 -85,-17l0 -49z"/>
  <path id="4" class="fil3" d="M4581 1242c6,0 16,0 29,0 67,3 115,5 142,5 27,0 76,-2 146,-5 14,0 25,0 32,0l0 49c-26,0 -45,3 -57,10 -12,6 -18,16 -18,29 0,7 1,13 3,20 2,6 7,15 14,27l137 216 149 -232c6,-11 11,-19 12,-25 2,-5 3,-11 3,-16 0,-9 -6,-16 -17,-21 -12,-5 -29,-8 -50,-8l-7 0 0 -49c31,2 58,3 80,4 22,1 41,2 58,2 11,0 25,-1 42,-2 18,-1 44,-2 79,-4l0 49 -4 0c-31,0 -56,6 -75,17 -19,10 -38,30 -58,60l-179 264 236 363c25,38 44,61 58,72 13,10 29,15 46,15l5 0 0 48c-43,-1 -78,-2 -107,-3 -29,0 -50,-1 -63,-1 -20,0 -45,1 -77,1 -31,1 -68,2 -111,3l-1 -48c32,0 55,-3 68,-10 13,-6 19,-16 19,-31 0,-6 -1,-13 -4,-21 -3,-7 -7,-15 -13,-25l-166 -258 -171 264c-5,9 -10,18 -13,25 -3,8 -4,15 -4,20 0,11 5,20 16,26 11,7 27,10 47,10l11 0 0 48c-25,-2 -50,-3 -73,-4 -24,0 -46,-1 -65,-1 -14,0 -31,1 -52,1 -21,1 -44,2 -70,4l0 -48 5 0c29,0 54,-6 72,-17 19,-12 39,-34 62,-67l203 -301 -206 -318c-24,-38 -43,-62 -57,-72 -13,-11 -29,-16 -48,-16l-8 0 0 -49z"/>
  <path id="5" class="fil3" d="M6136 1238c2,29 3,62 5,98 2,36 5,82 9,138l-41 0c-7,-72 -25,-121 -54,-145 -29,-25 -83,-38 -163,-38l-188 0 0 344 86 0c55,0 90,-8 104,-24 15,-16 24,-54 27,-113l41 0c0,12 -1,30 -2,52 -2,58 -3,96 -3,115 0,32 2,85 4,159 1,12 1,20 1,25l-41 0c-3,-68 -13,-113 -28,-133 -16,-20 -50,-30 -103,-30l-86 0 0 394 233 0c83,0 139,-14 169,-43 30,-28 49,-83 56,-166l41 0c-4,49 -8,95 -11,137 -2,43 -5,83 -6,122l-742 0 0 -48c45,0 73,-6 85,-18 12,-12 17,-41 17,-86l0 -583c0,-46 -5,-74 -17,-86 -12,-11 -40,-17 -85,-18l0 -49 158 0c112,0 212,-1 302,-1 89,-1 166,-2 232,-3z"/>
  <path class="fil3" d="M2867 9326l14 -80 52 0c0,9 -1,20 -1,36 -3,83 -5,142 -5,176 0,21 1,60 2,117 0,24 1,43 1,56l-53 0c-10,-121 -45,-215 -106,-281 -61,-67 -141,-101 -241,-101 -121,0 -212,43 -274,130 -61,87 -92,215 -92,386 0,170 33,300 99,389 66,90 162,135 288,135 86,0 159,-23 218,-68 59,-45 98,-109 119,-192l59 0c-16,109 -64,194 -142,253 -78,59 -180,89 -305,89 -170,0 -307,-53 -410,-160 -103,-106 -155,-248 -155,-423 0,-179 53,-325 158,-436 105,-111 242,-167 411,-167 72,0 139,12 202,37 63,24 117,59 161,104z"/>
  <path id="1" class="fil3" d="M3453 9444l-155 430 300 0 -145 -430zm27 -259l86 0 373 1023c12,35 27,58 43,69 17,11 43,16 80,16l0 63c-67,-3 -116,-5 -147,-6 -30,-1 -55,-2 -73,-2 -23,0 -52,1 -88,2 -35,1 -86,3 -152,6l0 -63c39,-1 68,-6 85,-16 17,-9 26,-25 26,-47 0,-7 -1,-14 -2,-20 -1,-6 -2,-12 -3,-17l-86 -254 -343 0 -66 187c-1,3 -3,7 -4,11 -16,45 -24,76 -24,93 0,22 6,38 19,47 12,8 37,14 75,16l0 63c-28,-2 -55,-3 -82,-5 -25,0 -49,-1 -71,-1 -18,0 -40,1 -65,1 -24,2 -52,3 -80,5l0 -63c35,0 61,-5 78,-16 16,-11 31,-36 44,-74l377 -1018z"/>
  <path id="2" class="fil3" d="M4463 9742c13,1 26,1 39,1 13,1 29,1 48,1 96,0 165,-20 207,-59 43,-39 64,-103 64,-190 0,-80 -21,-139 -62,-176 -42,-38 -108,-57 -198,-57 -18,0 -48,1 -89,3 -4,0 -7,1 -9,1l0 476zm-338 -543c35,2 70,3 106,4 35,0 71,1 107,1 30,0 73,-1 131,-2 57,-2 99,-3 126,-3 146,0 255,24 327,70 73,47 109,117 109,212 0,93 -29,163 -86,211 -57,48 -146,75 -267,83 109,7 187,29 234,66 47,37 75,100 86,188 4,23 6,55 8,97 5,93 29,140 72,140 22,0 40,-7 53,-22 13,-15 22,-38 29,-71l45 8c-10,64 -31,112 -65,143 -33,31 -80,47 -140,47 -69,0 -118,-18 -149,-54 -30,-36 -45,-94 -45,-176 0,-10 0,-25 0,-44 1,-19 1,-33 1,-44 0,-98 -19,-163 -55,-195 -38,-32 -106,-48 -206,-48l-83 0 0 348c0,60 7,98 23,113 15,15 52,22 109,22l0 63c-64,-3 -113,-5 -147,-6 -33,-1 -60,-2 -81,-2 -22,0 -51,1 -86,2 -35,1 -87,3 -156,6l0 -63c58,0 95,-7 111,-23 15,-15 23,-53 23,-112l0 -759c0,-60 -8,-97 -23,-112 -16,-14 -53,-22 -111,-23l0 -65z"/>
  <line class="fil2 str0" x1="592" y1="2426" x2="6520" y2= "2426" />
  <line class="fil2 str0" x1="592" y1="8856" x2="6520" y2= "8856" />
  <path class="fil3" d="M2267 3424l0 3552 392 0c238,0 423,-13 553,-38 129,-25 243,-67 340,-128 215,-124 378,-323 485,-594 108,-272 162,-614 162,-1025 0,-631 -123,-1083 -368,-1356 -245,-274 -659,-411 -1241,-411l-323 0zm-1169 -222c80,5 166,9 260,12 92,3 233,4 419,4 103,0 271,-2 503,-8 232,-6 413,-8 544,-8 675,0 1204,177 1586,532 383,356 574,848 574,1478 0,635 -181,1126 -544,1470 -362,345 -879,517 -1548,517 -113,0 -287,-4 -522,-11 -236,-7 -414,-10 -535,-10 -129,0 -255,2 -375,4 -122,4 -242,10 -362,17l0 -217c201,0 328,-27 382,-81 53,-53 80,-182 80,-387l0 -2622c0,-207 -27,-335 -80,-386 -54,-51 -181,-78 -382,-82l0 -222z"/>
  <path class="fil3" d="M5777 4840l49 -277 179 0c-1,30 -3,71 -5,125 -10,287 -16,489 -16,609 0,71 2,205 6,403 2,83 3,147 5,193l-185 0c-33,-417 -154,-741 -364,-972 -140,-154 -250,-240 -449,-292 7,-45 -12,-111 -25,-156 -12,-39 -17,-49 -28,-76 104,21 177,44 276,83 217,84 403,205 557,360zm-1689 -169c-625,278 -739,1078 -739,1684 0,174 5,298 25,447 -15,6 -65,24 -79,27l-105 25 -215 40 -200 18 -92 3 -57 -2c-7,0 -11,0 -31,-16 -33,-161 -37,-280 -37,-462 0,-619 182,-1121 545,-1505 261,-277 548,-445 923,-523 49,118 56,173 62,264zm-630 2547c57,203 128,340 233,483 229,309 560,464 993,464 299,0 550,-78 754,-234 203,-156 339,-376 410,-663l207 0c-58,378 -222,669 -492,874 -270,205 -622,307 -1055,307 -588,0 -1059,-184 -1415,-552 -185,-191 -308,-374 -396,-630 13,-3 33,-2 47,-3l683 -39c15,-1 18,-2 31,-7z"/>
 </g>
</svg>
