<?xml version="1.0" encoding="UTF-8"?>
<!DOCTYPE svg PUBLIC "-//W3C//DTD SVG 1.1//EN" "http://www.w3.org/Graphics/SVG/1.1/DTD/svg11.dtd">
<!-- Creator: CorelDRAW X8 -->
<svg xmlns="http://www.w3.org/2000/svg" xml:space="preserve" width="7.48031in" height="4.33071in" version="1.1" style="shape-rendering:geometricPrecision; text-rendering:geometricPrecision; image-rendering:optimizeQuality; fill-rule:evenodd; clip-rule:evenodd"
viewBox="0 0 7480 4331"
 xmlns:xlink="http://www.w3.org/1999/xlink">
 <defs>
  <style type="text/css">
   <![CDATA[
    .str1 {stroke:#CCCCCC;stroke-width:111.11}
    .str0 {stroke:#00092E;stroke-width:6.94488}
    .fil0 {fill:#00092E}
    .fil1 {fill:white;fill-rule:nonzero}
   ]]>
  </style>
 </defs>
 <g id="Layer_x0020_1">
  <metadata id="CorelCorpID_0Corel-Layer"/>
  <ellipse class="fil0 str0" cx="3740" cy="2165" rx="3354" ry="1903"/>
  <path class="fil0 str1" d="M3740 401c1730,0 3132,790 3132,1764 0,975 -1402,1764 -3132,1764 -1730,0 -3132,-789 -3132,-1764 0,-974 1402,-1764 3132,-1764z"/>
  <path class="fil1" d="M5818 2306l15 0c-2,8 -3,18 -5,30 -1,3 -1,5 -2,6 16,10 33,17 50,21 17,5 35,7 55,7 20,0 38,-2 54,-6 17,-4 33,-10 47,-19l4 13c-24,26 -42,53 -53,79 -12,27 -18,56 -18,86 0,36 7,64 20,84 13,20 31,31 53,31 28,0 62,-20 101,-59 40,-39 77,-91 112,-157l13 5c-41,77 -88,139 -141,185 -53,47 -102,70 -146,70 -26,0 -46,-9 -61,-27 -15,-18 -22,-43 -22,-74 0,-30 7,-60 23,-89 15,-29 45,-68 88,-117 -32,17 -64,30 -95,39 -32,9 -63,13 -93,13l-22 0c-21,41 -44,78 -69,111 -26,32 -52,59 -81,81l0 -17c47,-42 85,-88 114,-138 29,-49 49,-102 59,-158zm-267 17l0 13c-10,8 -17,17 -20,29 -4,12 -6,32 -6,60l0 152c0,28 2,47 6,57 4,10 11,15 21,15 31,0 69,-21 112,-62 43,-42 82,-97 118,-165l14 6c-40,75 -87,136 -141,183 -54,47 -102,71 -143,71 -20,0 -35,-8 -47,-24 -11,-15 -17,-37 -19,-66 -20,30 -43,53 -69,67 -25,15 -52,23 -81,23 -34,0 -62,-12 -84,-36 -21,-24 -32,-56 -32,-95 0,-53 20,-101 59,-143 40,-42 84,-63 132,-63 14,0 29,3 44,7 16,5 31,13 48,23l88 -52zm-105 130c0,-30 -6,-53 -19,-69 -14,-16 -33,-24 -59,-24 -30,0 -56,15 -77,44 -22,29 -32,65 -32,109 0,37 8,66 24,88 17,22 39,33 65,33 19,0 37,-6 55,-18 17,-12 32,-29 43,-50l0 -113zm-215 -31l13 6c-49,92 -102,158 -160,198 -58,41 -130,61 -214,61 -124,0 -227,-41 -308,-122 -81,-82 -122,-185 -122,-311 0,-80 17,-161 52,-242 34,-81 83,-156 146,-226 42,-47 88,-83 137,-108 49,-25 98,-38 145,-38 54,0 97,15 129,45 32,30 48,70 48,122 0,43 -8,83 -24,122 -17,38 -41,74 -73,108 -26,27 -53,49 -83,64 -30,15 -58,22 -85,22 -30,0 -55,-9 -74,-28 -19,-19 -29,-43 -29,-73 0,-14 3,-25 7,-36 4,-10 9,-17 16,-21l51 -34c-5,9 -8,18 -10,28 -2,9 -3,18 -3,27 0,26 8,46 25,62 16,15 38,23 66,23 46,0 85,-18 119,-55 33,-37 49,-81 49,-132 0,-56 -18,-103 -55,-140 -36,-38 -82,-57 -135,-57 -90,0 -166,44 -227,132 -61,88 -92,198 -92,332 0,156 34,280 102,372 69,93 159,139 272,139 66,0 125,-19 177,-58 51,-39 98,-99 140,-182zm-735 0l14 6c-44,85 -94,148 -149,190 -55,43 -115,64 -181,64 -53,0 -97,-15 -130,-45 -33,-30 -49,-69 -49,-117 0,-48 17,-90 53,-124 35,-34 78,-51 128,-51 24,0 44,7 60,20 15,14 23,30 23,51 0,25 -13,52 -39,79 -26,27 -67,56 -121,87 17,24 37,42 59,54 21,12 44,18 69,18 45,0 90,-20 135,-60 46,-40 88,-97 128,-172zm-399 149c39,-23 68,-46 88,-70 20,-24 30,-47 30,-70 0,-20 -6,-36 -17,-48 -12,-12 -27,-18 -45,-18 -24,0 -44,10 -59,29 -15,20 -23,45 -23,77 0,19 2,37 7,53 4,17 11,33 19,47zm-673 96l58 -60c10,6 18,11 24,14 7,2 13,4 18,4 14,0 28,-7 41,-20 13,-14 27,-36 43,-66 -16,-41 -33,-70 -49,-88 -17,-17 -36,-26 -60,-26l-13 0 30 -76c3,-1 6,-2 9,-3 4,0 9,-1 16,-1 19,0 38,9 55,27 18,18 36,46 55,86 25,-45 45,-74 61,-90 17,-15 35,-23 55,-23 8,0 17,2 25,5 8,3 17,7 28,14l-41 57c-11,-9 -20,-16 -28,-20 -9,-4 -16,-7 -22,-7 -8,0 -17,6 -26,16 -9,10 -23,31 -42,65 29,64 53,108 74,133 22,24 45,36 70,36 32,0 69,-20 111,-60 41,-40 80,-94 116,-162l15 6c-42,77 -89,138 -143,185 -53,46 -103,69 -148,69 -29,0 -54,-9 -76,-27 -20,-18 -42,-50 -65,-96 -26,47 -49,79 -68,97 -20,17 -42,26 -65,26 -8,0 -16,-1 -26,-4 -9,-2 -20,-6 -32,-11zm-266 -315l106 -29 0 13c-9,8 -17,19 -21,34 -4,14 -7,33 -7,55l0 160c0,20 3,34 8,44 5,9 13,14 23,14 29,0 64,-21 105,-61 41,-40 80,-93 114,-160l15 6c-40,77 -88,138 -142,184 -54,47 -104,70 -151,70 -14,0 -26,-6 -36,-17 -9,-11 -14,-26 -14,-44l0 -59c-35,40 -68,69 -99,90 -31,20 -58,30 -82,30 -21,0 -38,-6 -50,-18 -13,-12 -19,-27 -19,-46l0 -268 98 -27 0 12c-6,5 -10,10 -13,16 -3,6 -5,13 -5,21l0 5 0 216c0,18 3,30 9,38 6,8 15,12 29,12 14,0 31,-8 51,-22 19,-15 46,-41 81,-78l0 -191zm-518 198c0,42 3,69 10,82 7,13 19,19 36,19 34,0 73,-21 117,-63 45,-42 85,-97 121,-166l15 6c-41,78 -90,140 -144,185 -55,46 -107,69 -157,69 -26,0 -45,-10 -58,-29 -12,-19 -18,-49 -18,-91l0 -397c0,-108 21,-198 65,-272 44,-73 94,-109 151,-109 26,0 47,9 61,27 14,18 21,44 21,77 0,46 -18,108 -56,187 -38,78 -92,169 -164,272l0 203zm0 -232c54,-81 95,-157 123,-228 28,-71 42,-136 42,-195 0,-28 -4,-50 -13,-64 -8,-15 -21,-23 -37,-23 -36,0 -65,29 -85,87 -20,58 -30,140 -30,245l0 178zm-478 253c39,-23 68,-46 87,-70 20,-24 30,-47 30,-70 0,-20 -6,-36 -17,-48 -12,-12 -26,-18 -45,-18 -24,0 -44,10 -59,29 -15,20 -23,45 -23,77 0,19 2,37 7,53 5,17 11,33 20,47zm398 -149l14 6c-44,85 -94,148 -149,190 -54,43 -115,64 -181,64 -53,0 -97,-15 -129,-45 -33,-30 -50,-69 -50,-117 0,-48 18,-90 53,-124 35,-34 78,-51 128,-51 24,0 44,7 60,20 16,14 24,30 24,51 0,25 -14,52 -40,79 -26,27 -66,56 -120,87 17,24 36,42 58,54 22,12 45,18 69,18 45,0 91,-20 136,-60 45,-40 87,-97 127,-172zm-993 230c-41,13 -78,22 -110,27 -31,6 -60,8 -88,8 -43,0 -80,-7 -109,-21 -29,-15 -44,-33 -44,-54 0,-18 14,-33 41,-47 28,-13 61,-20 101,-20 29,0 59,5 92,15 32,9 77,27 132,54 33,-29 56,-63 71,-102 15,-39 22,-87 22,-144 0,-29 -2,-69 -7,-119 -4,-51 -6,-87 -6,-109 0,-75 13,-141 40,-199 27,-57 68,-110 125,-157l0 15c-24,28 -41,58 -51,88 -11,31 -16,65 -16,102 0,25 4,72 12,141 8,70 12,127 12,171 0,68 -14,129 -43,182 -28,53 -73,101 -133,144 31,14 60,24 85,31 26,7 50,10 72,10 87,0 160,-40 217,-121 57,-81 85,-185 85,-315 0,-91 -14,-175 -40,-251 -27,-75 -66,-141 -117,-196 -35,-38 -74,-67 -118,-87 -43,-19 -89,-29 -137,-29 -99,0 -182,32 -249,96 -67,64 -100,143 -100,239 0,63 15,116 44,157 29,41 66,61 111,61 19,0 38,-4 56,-12 18,-7 37,-19 55,-35l0 14c-27,26 -54,46 -83,59 -28,13 -57,20 -87,20 -53,0 -97,-20 -132,-58 -35,-39 -52,-88 -52,-148 0,-41 8,-82 25,-123 17,-41 40,-79 71,-115 49,-57 108,-101 177,-133 69,-31 142,-47 218,-47 123,0 220,44 291,132 71,88 106,208 106,361 0,165 -34,299 -103,401 -69,102 -158,153 -266,153 -21,0 -45,-3 -73,-9 -27,-7 -60,-16 -97,-30zm-28 -13c-8,-4 -20,-9 -37,-17 -83,-37 -143,-55 -181,-55 -26,0 -48,4 -65,14 -17,10 -25,21 -25,33 0,16 13,29 38,39 26,10 59,15 101,15 39,0 72,-2 99,-7 27,-4 50,-12 70,-22z"/>
 </g>
</svg>
