<svg xmlns="http://www.w3.org/2000/svg" width="11.66" height="12.87" viewBox="0 0 11.66 12.87">
  <metadata><?xpacket begin="﻿" id="W5M0MpCehiHzreSzNTczkc9d"?>
<x:xmpmeta xmlns:x="adobe:ns:meta/" x:xmptk="Adobe XMP Core 5.6-c138 79.159824, 2016/09/14-01:09:01        ">
   <rdf:RDF xmlns:rdf="http://www.w3.org/1999/02/22-rdf-syntax-ns#">
      <rdf:Description rdf:about=""/>
   </rdf:RDF>
</x:xmpmeta>
                                                                                                    
                                                                                                    
                                                                                                    
                                                                                                    
                                                                                                    
                                                                                                    
                                                                                                    
                                                                                                    
                                                                                                    
                                                                                                    
                                                                                                    
                                                                                                    
                                                                                                    
                                                                                                    
                                                                                                    
                                                                                                    
                                                                                                    
                                                                                                    
                                                                                                    
                                                                                                    
                           
<?xpacket end="w"?></metadata>
<defs>
    <style>
      .cls-1 {
        fill: #fff;
        fill-opacity: 0.6;
        fill-rule: evenodd;
      }
    </style>
  </defs>
  <path id="Shape_24_copy_2" data-name="Shape 24 copy 2" class="cls-1" d="M2291,2615.81a4.137,4.137,0,0,1,1.34-3.06,2.068,2.068,0,0,1,1.33-.85,2.015,2.015,0,0,1,1.19,1.12c0.47,0.74,1.22,1.84.53,2.67-0.33.4-.85,0.61-1.15,1.04a1.451,1.451,0,0,0,.08,1.45,8.3,8.3,0,0,0,2.13,2.64,1.854,1.854,0,0,0,1.38.61,3.418,3.418,0,0,0,1.32-1.02c0.99-.82,2.07.3,2.8,0.98a1.742,1.742,0,0,1,.72,1.24,2.348,2.348,0,0,1-1.03,1.24,3.836,3.836,0,0,1-3.39.82,7.535,7.535,0,0,1-3.41-1.99,16.23,16.23,0,0,1-2.59-3.18,8.834,8.834,0,0,1-.86-1.71,8.965,8.965,0,0,1-.39-2C2291.01,2615.15,2291.04,2616.17,2291,2615.81Z" transform="translate(-2291 -2611.91)"/>
</svg>
